<svg xmlns="http://www.w3.org/2000/svg" xmlns:xlink="http://www.w3.org/1999/xlink" version="1.1" x="0px" y="0px" viewBox="0 0 100 125" enable-background="new 0 0 100 100" xml:space="preserve"><path d="M65.611,55.68c2.209-2.072,3.597-5.007,3.597-8.272c0-2.195-0.634-4.238-1.712-5.975c0-0.003-13.11-19.801-13.11-19.801  c-3.051-4.253-9.531-3.758-13.221-0.152l0,0c0,0-7.813,7.627-9.396,9.188c-1.583,1.56-1.083,3.936,0.382,4.987l11.013,7.893  c1.15,0.825,2.647,0.788,3.748,0.028L35.079,66.9H49.41c-0.407,4.646-0.786,8.98-0.786,8.98c0,0.002-1.757,20.096-1.757,20.096  c-0.179,2.037,1.327,3.83,3.362,4.01c2.038,0.178,3.831-1.328,4.009-3.363l1.758-20.096l0.842-9.627h9.221  C66.059,66.9,65.61,55.682,65.611,55.68z M39.116,32.613L45,26.856l2.739,12.184c-0.206-0.3-0.459-0.574-0.773-0.798L39.116,32.613z  "/><circle cx="50.569" cy="8.163" r="8.163"/><text x="0" y="115" fill="#000000" font-size="5px" font-weight="bold" font-family="'Helvetica Neue', Helvetica, Arial-Unicode, Arial, Sans-serif">Created by Andrew McKinley</text><text x="0" y="120" fill="#000000" font-size="5px" font-weight="bold" font-family="'Helvetica Neue', Helvetica, Arial-Unicode, Arial, Sans-serif">from the Noun Project</text></svg>